# xmcd
#
# Track frame offsets:
#	150
#	16233
#	24630
#	39752
#	51913
#	67209
#	71937
#	85313
#	97749
#	117700
#	136934
#	149038
#	162491
#	176832
#	191143
#	208508
#	226038
#	240007
#	253166
#	263650
#	273254
#	283427
#	300854
#	312643
#	331139
#	340855
#
# Disc length: 4699 seconds
#
# Revision: 3
# Processed by: cddbd v1.5.2PL0 Copyright (c) Steve Scherf et al.
# Submitted via: audiograbber 1.81.03
#
DISCID=8312591a
DTITLE=TSALIGOPOULOU - AGAPIMENO MOU HMEROLOGIO
DYEAR=2005
DGENRE=Folklore
TTITLE0=NERATZOULA
TTITLE1=TO FEGGARI KANEI VOLTA
TTITLE2=EGO KRASI DEN EPINA
TTITLE3=MAVRO MOU HELIDONI
TTITLE4=TO PONEMENO STITHOS MOU
TTITLE5=ASPRO TRIANTAFYLLAKI MOU
TTITLE6=GIANTA
TTITLE7=MES TOU AIGAIOU TA NISIA
TTITLE8=TOURNA
TTITLE9=SALA SALA
TTITLE10=TO HARIKLAKI
TTITLE11=AEROPLANO THA PARO
TTITLE12=RIRIKA
TTITLE13=O MORTIS
TTITLE14=MAKRIA MOU NA FYGEIS
TTITLE15=EMATHA POS EISAI MAGAS
TTITLE16=TA PAIDIA TIS GEITONIAS MOU
TTITLE17=STIS NAOUSAS TO KASTRO
TTITLE18=PO PO MARIA
TTITLE19=O HLIOS
TTITLE20=MOU PARHGEILE T'AHDONI
TTITLE21=ZALIZOMAI
TTITLE22=TI 'THELA KAI S'AGAPOUSA 
TTITLE23=LIANOHORTAROUDIA
TTITLE24=OSO VAROUN TA SIDERA
TTITLE25=PERDIKA
EXTD=
EXTT0=
EXTT1=
EXTT2=
EXTT3=
EXTT4=
EXTT5=
EXTT6=
EXTT7=
EXTT8=
EXTT9=
EXTT10=
EXTT11=
EXTT12=
EXTT13=
EXTT14=
EXTT15=
EXTT16=
EXTT17=
EXTT18=
EXTT19=
EXTT20=
EXTT21=
EXTT22=
EXTT23=
EXTT24=
EXTT25=
PLAYORDER=
